<svg height="200px" width="200px" version="1.1" id="Layer_1" xmlns="http://www.w3.org/2000/svg" xmlns:xlink="http://www.w3.org/1999/xlink" viewBox="0 0 512 512" xml:space="preserve" fill="#000000"><g id="SVGRepo_bgCarrier" stroke-width="0"></g><g id="SVGRepo_tracerCarrier" stroke-linecap="round" stroke-linejoin="round"></g><g id="SVGRepo_iconCarrier"> <path style="fill:#10b981;" d="M256,0C114.616,0,0,114.616,0,256s114.616,256,256,256s256-114.616,256-256S397.384,0,256,0z"></path> <polygon points="199.32,187.152 172.76,108.56 104,108.56 104,87.56 187.832,87.56 219.216,180.424 "></polygon> <polygon style="fill:#FFFFFF;" points="148.376,169.512 440,169.512 384.416,325.472 196.944,325.472 "></polygon> <path style="fill:#999999;" d="M294.64,278.544V250.44c-8.768-2.504-15.192-6.296-19.288-11.368 c-4.088-5.072-6.136-11.24-6.136-18.48c0-7.336,2.312-13.496,6.944-18.48s10.784-7.856,18.48-8.616v-6.64h9.728v6.64 c7.104,0.848,12.768,3.272,16.968,7.28c4.2,4,6.888,9.36,8.048,16.064l-16.968,2.216c-1.032-5.28-3.712-8.856-8.048-10.736v26.232 c10.728,2.904,18.04,6.672,21.936,11.304c3.888,4.624,5.84,10.56,5.84,17.808c0,8.096-2.448,14.92-7.352,20.464 c-4.896,5.544-11.704,8.944-20.424,10.192v12.544h-9.728v-12.208c-7.736-0.936-14.016-3.824-18.848-8.656 c-4.832-4.824-7.92-11.648-9.256-20.456l17.512-1.88c0.712,3.576,2.056,6.664,4.024,9.256 C290.032,275.504,292.224,277.384,294.64,278.544z M294.64,208.12c-2.64,0.896-4.744,2.416-6.304,4.56 c-1.568,2.144-2.344,4.512-2.344,7.104c0,2.368,0.712,4.576,2.144,6.608s3.6,3.68,6.504,4.928L294.64,208.12L294.64,208.12z M304.368,279.488c3.352-0.624,6.08-2.184,8.184-4.664s3.152-5.4,3.152-8.752c0-2.992-0.888-5.576-2.648-7.744 c-1.768-2.168-4.656-3.832-8.688-5V279.488z"></path> <circle cx="351.688" cy="384" r="40.4"></circle> <circle cx="229.72" cy="384" r="40.4"></circle> </g></svg>